<svg xmlns="http://www.w3.org/2000/svg" viewBox="0 0 236.58 193.862" width="236.58" height="193.862" fill="none" xmlns:c2pa="http://c2pa.org/manifest"><metadata><c2pa:manifest>AAAWgmp1bWIAAAAeanVtZGMycGEAEQAQgAAAqgA4m3EDYzJwYQAAABZcanVtYgAAAEdqdW1kYzJtYQARABCAAACqADibcQN1cm46YzJwYTowNGVkNzRlOC03MDVhLTRhMzktODEyZC0zN2E4MjlmMTMwMWEAAAADl2p1bWIAAAApanVtZGMyYXMAEQAQgAAAqgA4m3EDYzJwYS5hc3NlcnRpb25zAAAAALxqdW1iAAAARGp1bWRjYm9yABEAEIAAAKoAOJtxE2MycGEuaW5ncmVkaWVudC52MwAAAAAYYzJzaGbIk3yM+jY/qC2wEPZr3ygAAABwY2JvcqNpZGM6Zm9ybWF0bWltYWdlL3N2Zyt4bWxqaW5zdGFuY2VJRHgseG1wOmlpZDozYTYxYmVmOC02ZDYyLTQ3N2UtYWNmMS04NzI3ODA2ODZkYTlscmVsYXRpb25zaGlwaHBhcmVudE9mAAAB4mp1bWIAAABBanVtZGNib3IAEQAQgAAAqgA4m3ETYzJwYS5hY3Rpb25zLnYyAAAAABhjMnNoKq/6xprjY4ubZMj9OGaHPgAAAZljYm9yomdhY3Rpb25zgqJmYWN0aW9ua2MycGEub3BlbmVkanBhcmFtZXRlcnOha2luZ3JlZGllbnRzgaJjdXJseC1zZWxmI2p1bWJmPWMycGEuYXNzZXJ0aW9ucy9jMnBhLmluZ3JlZGllbnQudjNkaGFzaFggxsBRytFyjtmsDaDdbuVq+YUmsaW7y4dJ2CgSD7iW9SWkZmFjdGlvbngdY29tLmFudGhyb3BpYy5jbGF1ZGUucHJvdmlkZWRqcGFyYW1ldGVyc6F4H2NvbS5hbnRocm9waWMub3JpZ2luLWNvbmZpZGVuY2VndW5rbm93bmtkZXNjcmlwdGlvbnhmQ2xhdWRlIHByb3ZpZGVkIHRoaXMgZmlsZSBhdCB0aGUgcmVxdWVzdCBvZiBhIHVzZXIgYW5kIG1heSBoYXZlIGNyZWF0ZWQgb3IgbW9kaWZpZWQgdGhlIGZpbGUgY29udGVudHMubXNvZnR3YXJlQWdlbnShZG5hbWVmQ2xhdWRlcmFsbEFjdGlvbnNJbmNsdWRlZPUAAADIanVtYgAAAEBqdW1kY2JvcgARABCAAACqADibcRNjMnBhLmhhc2guZGF0YQAAAAAYYzJzaMqqx4qoY/kpT/rNC1m2TooAAACAY2JvcqVjYWxnZnNoYTI1NmNwYWRNAAAAAAAAAAAAAAAAAGRoYXNoWCAajsSnfmMSn890hpo6TiLw+a7En5a+psMh5IBTikRPGGRuYW1lbmp1bWJmIG1hbmlmZXN0amV4Y2x1c2lvbnOBomVzdGFydBiwZmxlbmd0aBkeBAAAAj5qdW1iAAAAJ2p1bWRjMmNsABEAEIAAAKoAOJtxA2MycGEuY2xhaW0udjIAAAACD2Nib3KlY2FsZ2ZzaGEyNTZpc2lnbmF0dXJleE1zZWxmI2p1bWJmPS9jMnBhL3VybjpjMnBhOjA0ZWQ3NGU4LTcwNWEtNGEzOS04MTJkLTM3YTgyOWYxMzAxYS9jMnBhLnNpZ25hdHVyZWppbnN0YW5jZUlEeCx4bXA6aWlkOjE1NjI0NWQ1LWU4MWQtNDU2Zi04Y2U0LWEzMDVhZGNkY2ZjN3JjcmVhdGVkX2Fzc2VydGlvbnODomN1cmx4LXNlbGYjanVtYmY9YzJwYS5hc3NlcnRpb25zL2MycGEuaW5ncmVkaWVudC52M2RoYXNoWCDGwFHK0XKO2awNoN1u5Wr5hSaxpbvLh0nYKBIPuJb1JaJjdXJseCpzZWxmI2p1bWJmPWMycGEuYXNzZXJ0aW9ucy9jMnBhLmFjdGlvbnMudjJkaGFzaFgg+iXmdtrEQ5gpLED1YnGp8aWTqh/LuY/dNjSfWZUiF1SiY3VybHgpc2VsZiNqdW1iZj1jMnBhLmFzc2VydGlvbnMvYzJwYS5oYXNoLmRhdGFkaGFzaFgg7RliE/JxZmdnkzX+TyfiJA11DDcPjFhpUUcTqxXZhih0Y2xhaW1fZ2VuZXJhdG9yX2luZm+jZG5hbWVvQW50aHJvcGljIEZpbGVzZ3ZlcnNpb25lMS4wLjBrc3BlY1ZlcnNpb25lMi40LjAAABA4anVtYgAAAChqdW1kYzJjcwARABCAAACqADibcQNjMnBhLnNpZ25hdHVyZQAAABAIY2JvctKEWQISogEmGCFZAgowggIGMIIBjaADAgECAhRA5aAK7sI50L64g/oGQgU9Z1UTADAKBggqhkjOPQQDAzBJMRcwFQYDVQQKEw5BbnRocm9waWMsIFBCQzEuMCwGA1UEAxMlQW50aHJvcGljIENvbnRlbnQgQ3JlZGVudGlhbHMgUm9vdCBDQTAeFw0yNjA4MDcxODQzNTZaFw0yODA4MDYxOTQzNTZaMEQxFzAVBgNVBAoTDkFudGhyb3BpYywgUEJDMSkwJwYDVQQDEyBBbnRocm9waWMgQ2xhdWRlIENvbnRlbnQgU2lnbmluZzBZMBMGByqGSM49AgEGCCqGSM49AwEHA0IABJh6CmvLUBgFFNU0vUKlOVtE6djd17L5SuwX0LemFisBM3dkd/3cyjxFA3Qo5S46fX0/ihY0VZ7mfb9KF703t5OjWDBWMA4GA1UdDwEB/wQEAwIHgDAVBgNVHSUEDjAMBgorBgEEAYPoXgIBMAwGA1UdEwEB/wQCMAAwHwYDVR0jBBgwFoAUzlHiBIFOZFsj+OPEz5o+nMHXXMIwCgYIKoZIzj0EAwMDZwAwZAIwMXMdFJ4BetLLVY7ORuE9noqbbAZOZn/aArXyTwFAZfKrPzxF2vPoJNf1+UCdg1XGAjBwX1zd9WGqYkqmL5SFqw1QySjr1zJfpJM9+1rdDwSPLMOPOjKuiXjoU/pUUeG9RwmhY3BhZFkNngAAAAAAAAAAAAAAAAAAAAAAAAAAAAAAAAAAAAAAAAAAAAAAAAAAAAAAAAAAAAAAAAAAAAAAAAAAAAAAAAAAAAAAAAAAAAAAAAAAAAAAAAAAAAAAAAAAAAAAAAAAAAAAAAAAAAAAAAAAAAAAAAAAAAAAAAAAAAAAAAAAAAAAAAAAAAAAAAAAAAAAAAAAAAAAAAAAAAAAAAAAAAAAAAAAAAAAAAAAAAAAAAAAAAAAAAAAAAAAAAAAAAAAAAAAAAAAAAAAAAAAAAAAAAAAAAAAAAAAAAAAAAAAAAAAAAAAAAAAAAAAAAAAAAAAAAAAAAAAAAAAAAAAAAAAAAAAAAAAAAAAAAAAAAAAAAAAAAAAAAAAAAAAAAAAAAAAAAAAAAAAAAAAAAAAAAAAAAAAAAAAAAAAAAAAAAAAAAAAAAAAAAAAAAAAAAAAAAAAAAAAAAAAAAAAAAAAAAAAAAAAAAAAAAAAAAAAAAAAAAAAAAAAAAAAAAAAAAAAAAAAAAAAAAAAAAAAAAAAAAAAAAAAAAAAAAAAAAAAAAAAAAAAAAAAAAAAAAAAAAAAAAAAAAAAAAAAAAAAAAAAAAAAAAAAAAAAAAAAAAAAAAAAAAAAAAAAAAAAAAAAAAAAAAAAAAAAAAAAAAAAAAAAAAAAAAAAAAAAAAAAAAAAAAAAAAAAAAAAAAAAAAAAAAAAAAAAAAAAAAAAAAAAAAAAAAAAAAAAAAAAAAAAAAAAAAAAAAAAAAAAAAAAAAAAAAAAAAAAAAAAAAAAAAAAAAAAAAAAAAAAAAAAAAAAAAAAAAAAAAAAAAAAAAAAAAAAAAAAAAAAAAAAAAAAAAAAAAAAAAAAAAAAAAAAAAAAAAAAAAAAAAAAAAAAAAAAAAAAAAAAAAAAAAAAAAAAAAAAAAAAAAAAAAAAAAAAAAAAAAAAAAAAAAAAAAAAAAAAAAAAAAAAAAAAAAAAAAAAAAAAAAAAAAAAAAAAAAAAAAAAAAAAAAAAAAAAAAAAAAAAAAAAAAAAAAAAAAAAAAAAAAAAAAAAAAAAAAAAAAAAAAAAAAAAAAAAAAAAAAAAAAAAAAAAAAAAAAAAAAAAAAAAAAAAAAAAAAAAAAAAAAAAAAAAAAAAAAAAAAAAAAAAAAAAAAAAAAAAAAAAAAAAAAAAAAAAAAAAAAAAAAAAAAAAAAAAAAAAAAAAAAAAAAAAAAAAAAAAAAAAAAAAAAAAAAAAAAAAAAAAAAAAAAAAAAAAAAAAAAAAAAAAAAAAAAAAAAAAAAAAAAAAAAAAAAAAAAAAAAAAAAAAAAAAAAAAAAAAAAAAAAAAAAAAAAAAAAAAAAAAAAAAAAAAAAAAAAAAAAAAAAAAAAAAAAAAAAAAAAAAAAAAAAAAAAAAAAAAAAAAAAAAAAAAAAAAAAAAAAAAAAAAAAAAAAAAAAAAAAAAAAAAAAAAAAAAAAAAAAAAAAAAAAAAAAAAAAAAAAAAAAAAAAAAAAAAAAAAAAAAAAAAAAAAAAAAAAAAAAAAAAAAAAAAAAAAAAAAAAAAAAAAAAAAAAAAAAAAAAAAAAAAAAAAAAAAAAAAAAAAAAAAAAAAAAAAAAAAAAAAAAAAAAAAAAAAAAAAAAAAAAAAAAAAAAAAAAAAAAAAAAAAAAAAAAAAAAAAAAAAAAAAAAAAAAAAAAAAAAAAAAAAAAAAAAAAAAAAAAAAAAAAAAAAAAAAAAAAAAAAAAAAAAAAAAAAAAAAAAAAAAAAAAAAAAAAAAAAAAAAAAAAAAAAAAAAAAAAAAAAAAAAAAAAAAAAAAAAAAAAAAAAAAAAAAAAAAAAAAAAAAAAAAAAAAAAAAAAAAAAAAAAAAAAAAAAAAAAAAAAAAAAAAAAAAAAAAAAAAAAAAAAAAAAAAAAAAAAAAAAAAAAAAAAAAAAAAAAAAAAAAAAAAAAAAAAAAAAAAAAAAAAAAAAAAAAAAAAAAAAAAAAAAAAAAAAAAAAAAAAAAAAAAAAAAAAAAAAAAAAAAAAAAAAAAAAAAAAAAAAAAAAAAAAAAAAAAAAAAAAAAAAAAAAAAAAAAAAAAAAAAAAAAAAAAAAAAAAAAAAAAAAAAAAAAAAAAAAAAAAAAAAAAAAAAAAAAAAAAAAAAAAAAAAAAAAAAAAAAAAAAAAAAAAAAAAAAAAAAAAAAAAAAAAAAAAAAAAAAAAAAAAAAAAAAAAAAAAAAAAAAAAAAAAAAAAAAAAAAAAAAAAAAAAAAAAAAAAAAAAAAAAAAAAAAAAAAAAAAAAAAAAAAAAAAAAAAAAAAAAAAAAAAAAAAAAAAAAAAAAAAAAAAAAAAAAAAAAAAAAAAAAAAAAAAAAAAAAAAAAAAAAAAAAAAAAAAAAAAAAAAAAAAAAAAAAAAAAAAAAAAAAAAAAAAAAAAAAAAAAAAAAAAAAAAAAAAAAAAAAAAAAAAAAAAAAAAAAAAAAAAAAAAAAAAAAAAAAAAAAAAAAAAAAAAAAAAAAAAAAAAAAAAAAAAAAAAAAAAAAAAAAAAAAAAAAAAAAAAAAAAAAAAAAAAAAAAAAAAAAAAAAAAAAAAAAAAAAAAAAAAAAAAAAAAAAAAAAAAAAAAAAAAAAAAAAAAAAAAAAAAAAAAAAAAAAAAAAAAAAAAAAAAAAAAAAAAAAAAAAAAAAAAAAAAAAAAAAAAAAAAAAAAAAAAAAAAAAAAAAAAAAAAAAAAAAAAAAAAAAAAAAAAAAAAAAAAAAAAAAAAAAAAAAAAAAAAAAAAAAAAAAAAAAAAAAAAAAAAAAAAAAAAAAAAAAAAAAAAAAAAAAAAAAAAAAAAAAAAAAAAAAAAAAAAAAAAAAAAAAAAAAAAAAAAAAAAAAAAAAAAAAAAAAAAAAAAAAAAAAAAAAAAAAAAAAAAAAAAAAAAAAAAAAAAAAAAAAAAAAAAAAAAAAAAAAAAAAAAAAAAAAAAAAAAAAAAAAAAAAAAAAAAAAAAAAAAAAAAAAAAAAAAAAAAAAAAAAAAAAAAAAAAAAAAAAAAAAAAAAAAAAAAAAAAAAAAAAAAAAAAAAAAAAAAAAAAAAAAAAAAAAAAAAAAAAAAAAAAAAAAAAAAAAAAAAAAAAAAAAAAAAAAAAAAAAAAAAAAAAAAAAAAAAAAAAAAAAAAAAAAAAAAAAAAAAAAAAAAAAAAAAAAAAAAAAAAAAAAAAAAAAAAAAAAAAAAAAAAAAAAAAAAAAAAAAAAAAAAAAAAAAAAAAAAAAAAAAAAAAAAAAAAAAAAAAAAAAAAAAAAAAAAAAAAAAAAAAAAAAAAAAAAAAAAAAAAAAAAAAAAAAAAAAAAAAAAAAAAAAAAAAAAAAAAAAAAAAAAAAAAAAAAAAAAAAAAAAAAAAAAAAAAAAAAAAAAAAAAAAAAAAAAAAAAAAAAAAAAAAAAAAAAAAAAAAAAAAAAAAAAAAAAAAAAAAAAAAAAAAAAAAAAAAAAAAAAAAAAAAAAAAAAAAAAAAAAAAAAAAAAAAAAAAAAAAAAAAAAAAAAAAAAAAAAAAAAAAAAAAAAAAAAAAAAAAAAAAAAAAAAAAAAAAAAAAAAAAAAAAAAAAAAAAAAAAAAAAAAAAAAAAAAAAAAAAAAAAAAAAAAAAAAAAAAAAAAAAAAAAAAAAAAAAAAAAAAAAAAAAAAAAAAAAAAAAAAAAAAAAAAAAAAAAAAAAAAAAAAAAAAAAAAAAAAAAAAAAAAAAAAAAAAAAAAAAAAAAAAAAAAAAAAAAAAAAAAAAAAAAAAAAAAAAAAAAAAAAAAAAAAAAAAAAAAAAAAAAAAAAAAAAAAAAAAAAAAAAAAAAAAAAAAAAAAAAAAAAAAAAAAAAAAAAAAAAAAAAAAAAAAAAAAAAAAAAAAAAAAAAAAAAAAAAAAAAAAAAAAAAAAAAAAAAAAAAAAAAAAAAAAAAAAAAAAAAAAAAAAAAAAAAAAAAAAAAAAAAAAAAAAAAAAAAAAAAAAAAAAAAAAAAAAAAAAAAAAAAAAAAAAAAAAAAAAAAAAAAAAAAAAAAAAAAAAAAAAAAAAAAAAAAAAAAAAAAAAAAAAAAAAAAAAAAAAAAAAAAAAAAAAAAAAAAAAAAAAAAAAAAAAAAAAAAAAAAAAAAAAAAAAAAAAAAAAAAAAAAAAAAAAAAAAAAAAAAAAAAAAAAAAAAAAAAAAAAAAAAAAAAAAAAAAAAAAAAAAAAAAAAAAAAAAAAAAAAAAAAAAAAAAAAAAAAAAAAAAAAAAAAAAAAAAAAAAAAAAAAAAAAAAAAAAAAAAAAAAAAAAAAAAAAAAAAAAAAAAAAAAAAAAAAAAAAAAAAAAAAAAAAAAAAAAAAAAAAAAAAAAAAAAAAAAAAAAAAAAAAAAAAAAAAAAAAAAAAAAAAAAAAAAAAAAAAAAAAAAAAAAAAAAAAAAAAAAAAAAAAAAAAAAAAAAAAAAAAAAAAAAAAAAAAAAAAAAAAAAAAAAAAAAAAAAAAAAAAAAAAAAAAAAAAAAAAAAAAAAAAAAAAAAAAAAAAAAAAAAAAAAAAAAAAAAAAAAAAAAAAAAAAAAAAAAAAAAAAAAAAAAAAAAAAAAAAAAAAAAAAAAAAAAAAAAAAAAAAAAAAAAAAAAAAAAAAAAAAAAAAAAAAAAAAAAAAAAAAAAAAAAAAAAAAAAAAAAAAAAAAAAAAAAAAAAAAAAAAAAAAAAAAAAAAAAAAAAAAAAAAAAAAAAAAAPZYQK6fAwv+lvv1cNENmoI+Zd06iA+gJ1af+EknKEg+Heaam9hzJUmketpkwq50AOUKWROqylx4RI/LeGGOkHDZcgM=</c2pa:manifest></metadata>
<g transform="translate(68.290 0)"><path d="M 68 2.5 L 97.5 2.5 L 97.5 32 L 90.5 32 L 90.5 9.5 L 68 9.5 Z" fill="#1B1815"/><path d="M 97.5 68 L 97.5 97.5 L 68 97.5 L 68 90.5 L 90.5 90.5 L 90.5 68 Z" fill="#1B1815"/><path d="M 32 97.5 L 2.5 97.5 L 2.5 68 L 9.5 68 L 9.5 90.5 L 32 90.5 Z" fill="#1B1815"/><path d="M 2.5 32 L 2.5 2.5 L 32 2.5 L 32 9.5 L 9.5 9.5 L 9.5 32 Z" fill="#B0663A"/><g transform="translate(24.520 63.300)"><path d="M2.7739814453125 0.0V-26.599999999999998H13.92700927734375Q16.421710205078124 -26.599999999999998 18.290359741210935 -25.739299072265624Q20.15900927734375 -24.87859814453125 21.20495788574219 -23.28924768066406Q22.250906494140626 -21.699897216796874 22.250906494140626 -19.507299072265624V-19.077897216796874Q22.250906494140626 -16.577504638671876 21.057710205078124 -15.075556030273438Q19.864513916015625 -13.573607421875 18.165915771484375 -12.956102783203125V-12.351897216796875Q19.61942041015625 -12.289196289062499 20.4820185546875 -11.380042114257812Q21.34461669921875 -10.470887939453124 21.34461669921875 -8.821691650390624V0.0H17.23295361328125V-8.259280517578125Q17.23295361328125 -9.277673095703125 16.691458251953122 -9.874271240234375Q16.149962890624998 -10.470869384765624 14.968168457031249 -10.470869384765624H6.88564453125V0.0ZM6.88564453125 -14.206326904296875H13.50140185546875Q15.699673095703124 -14.206326904296875 16.919458251953124 -15.321616699218751Q18.139243408203125 -16.436906494140626 18.139243408203125 -18.378682373046875V-18.69218701171875Q18.139243408203125 -20.633962890625 16.945107788085938 -21.749252685546875Q15.750972167968749 -22.86454248046875 13.50140185546875 -22.86454248046875H6.88564453125Z M38.17859814453125 0.532Q33.331691650390624 0.532 30.476939331054687 -2.223Q27.622187011718747 -4.978 27.622187011718747 -10.174495361328125V-16.425504638671875Q27.622187011718747 -21.622 30.476939331054687 -24.377Q33.331691650390624 -27.131999999999998 38.17859814453125 -27.131999999999998Q42.98750463867187 -27.131999999999998 45.58671020507812 -24.47959814453125Q48.185915771484375 -21.8271962890625 48.185915771484375 -17.219691650390626V-17.00499072265625H44.123654541015625V-17.345093505859374Q44.123654541015625 -20.020271240234376 42.66636474609375 -21.73310778808594Q41.20907495117187 -23.4459443359375 38.17859814453125 -23.4459443359375Q35.15952319335938 -23.4459443359375 33.44668664550781 -21.5991591796875Q31.733850097656248 -19.7523740234375 31.733850097656248 -16.501504638671875V-10.098495361328125Q31.733850097656248 -6.872326904296875 33.44668664550781 -5.013191284179687Q35.15952319335938 -3.1540556640624997 38.17859814453125 -3.1540556640624997Q41.20907495117187 -3.1540556640624997 42.66636474609375 -4.879242675781249Q44.123654541015625 -6.6044296875 44.123654541015625 -9.254906494140625V-9.89900927734375H48.185915771484375V-9.380308349609376Q48.185915771484375 -4.7728037109375 45.58671020507812 -2.12040185546875Q42.98750463867187 0.532 38.17859814453125 0.532Z" fill="#1B1815"/></g></g><g transform="translate(0 152.934)"><path d="M2.1899853515625 0.0V-21.0H10.995007324218749Q12.964508056640625 -21.0 14.439757690429687 -20.320499267578125Q15.915007324218749 -19.64099853515625 16.740756225585937 -18.38624816894531Q17.566505126953125 -17.131497802734373 17.566505126953125 -15.400499267578125V-15.061497802734374Q17.566505126953125 -13.087503662109375 16.624508056640625 -11.901754760742186Q15.682510986328124 -10.716005859374999 14.341512451171875 -10.228502197265625V-9.751497802734375Q15.489016113281249 -9.7019970703125 16.1700146484375 -8.984243774414061Q16.85101318359375 -8.266490478515625 16.85101318359375 -6.964493408203125V0.0H13.60496337890625V-6.520484619140625Q13.60496337890625 -7.324478759765625 13.177467041015625 -7.795477294921875Q12.749970703125 -8.266475830078125 11.81697509765625 -8.266475830078125H5.43603515625V0.0ZM5.43603515625 -11.215521240234375H10.65900146484375Q12.394478759765624 -11.215521240234375 13.357467041015624 -12.096013183593751Q14.320455322265625 -12.976505126953125 14.320455322265625 -14.509486083984374V-14.75698974609375Q14.320455322265625 -16.289970703125 13.377716674804688 -17.170462646484374Q12.43497802734375 -18.050954589843748 10.65900146484375 -18.050954589843748H5.43603515625Z M26.204992675781252 0.0 32.19745971679688 -21.0H37.87954467773437L43.87201171875 0.0H40.51646118164063L39.145477294921875 -4.9559765625H30.931527099609376L29.56054321289063 0.0ZM31.72503662109375 -7.944023437499999H38.3519677734375L35.277004394531254 -18.982467041015624H34.800000000000004Z M61.158002929687505 0.42Q58.69349487304688 0.42 56.900991210937505 -0.472503662109375Q55.10848754882813 -1.36500732421875 54.13873718261719 -3.0727606201171875Q53.16898681640625 -4.780513916015625 53.16898681640625 -7.201512451171875V-21.0H56.415036621093755V-7.123509521484375Q56.415036621093755 -4.888531494140625 57.64652709960938 -3.689287719726562Q58.878017578125004 -2.4900439453125 61.158002929687505 -2.4900439453125Q63.43798828125 -2.4900439453125 64.66947875976562 -3.689287719726562Q65.90096923828125 -4.888531494140625 65.90096923828125 -7.123509521484375V-21.0H69.14701904296875V-7.201512451171875Q69.14701904296875 -4.780513916015625 68.18251831054687 -3.0727606201171875Q67.218017578125 -1.36500732421875 65.42026428222657 -0.472503662109375Q63.62251098632813 0.42 61.158002929687505 0.42ZM59.14348022460938 -22.74 61.20148315429688 -26.514008789062498H64.86753295898438L61.978516845703126 -22.74Z M79.9799853515625 0.0V-21.0H83.22603515625V-2.9490454101562498H93.33000000000001V0.0Z M124.94099853515625 0.42Q121.11449340820313 0.42 118.86074157714845 -1.755Q116.60698974609376 -3.9299999999999997 116.60698974609376 -8.032496337890624V-12.967503662109374Q116.60698974609376 -17.07 118.86074157714845 -19.244999999999997Q121.11449340820313 -21.419999999999998 124.94099853515625 -21.419999999999998Q128.7375036621094 -21.419999999999998 130.78950805664064 -19.32599853515625Q132.8415124511719 -17.2319970703125 132.8415124511719 -13.594493408203125V-13.42499267578125H129.63446411132813V-13.693494873046875Q129.63446411132813 -15.805477294921875 128.48397216796877 -17.15771667480469Q127.33348022460939 -18.5099560546875 124.94099853515625 -18.5099560546875Q122.55751831054688 -18.5099560546875 121.20527893066406 -17.0519677734375Q119.85303955078126 -15.593979492187499 119.85303955078126 -13.027503662109375V-7.972496337890624Q119.85303955078126 -5.425521240234374 121.20527893066406 -3.9577825927734374Q122.55751831054688 -2.4900439453125 124.94099853515625 -2.4900439453125Q127.33348022460939 -2.4900439453125 128.48397216796877 -3.85203369140625Q129.63446411132813 -5.2140234375 129.63446411132813 -7.306505126953125V-7.81500732421875H132.8415124511719V-7.4055065917968745Q132.8415124511719 -3.7680029296875 130.78950805664064 -1.67400146484375Q128.7375036621094 0.42 124.94099853515625 0.42Z M143.03998535156254 0.0V-21.0H156.25650512695316V-18.050954589843748H146.28603515625002V-12.043524169921875H155.41650512695315V-9.094478759765625H146.28603515625002V-2.9490454101562498H156.41550659179688V0.0Z M166.40998535156254 0.0V-21.0H175.2150073242188Q177.18450805664065 -21.0 178.65975769042973 -20.320499267578125Q180.13500732421878 -19.64099853515625 180.96075622558595 -18.38624816894531Q181.78650512695316 -17.131497802734373 181.78650512695316 -15.400499267578125V-15.061497802734374Q181.78650512695316 -13.087503662109375 180.84450805664065 -11.901754760742186Q179.90251098632814 -10.716005859374999 178.5615124511719 -10.228502197265625V-9.751497802734375Q179.70901611328128 -9.7019970703125 180.39001464843753 -8.984243774414061Q181.07101318359378 -8.266490478515625 181.07101318359378 -6.964493408203125V0.0H177.8249633789063V-6.520484619140625Q177.8249633789063 -7.324478759765625 177.39746704101566 -7.795477294921875Q176.96997070312503 -8.266475830078125 176.03697509765627 -8.266475830078125H169.65603515625003V0.0ZM169.65603515625003 -11.215521240234375H174.87900146484378Q176.61447875976566 -11.215521240234375 177.57746704101567 -12.096013183593751Q178.54045532226564 -12.976505126953125 178.54045532226564 -14.509486083984374V-14.75698974609375Q178.54045532226564 -16.289970703125 177.5977166748047 -17.170462646484374Q176.6549780273438 -18.050954589843748 174.87900146484378 -18.050954589843748H169.65603515625003Z M199.8675036621094 0.42Q196.00199707031254 0.42 193.71449340820317 -1.755Q191.42698974609377 -3.9299999999999997 191.42698974609377 -8.032496337890624V-12.967503662109374Q191.42698974609377 -17.07 193.71449340820317 -19.244999999999997Q196.00199707031254 -21.419999999999998 199.8675036621094 -21.419999999999998Q203.7330102539063 -21.419999999999998 206.02051391601566 -19.244999999999997Q208.30801757812503 -17.07 208.30801757812503 -12.967503662109374V-8.032496337890624Q208.30801757812503 -3.9299999999999997 206.02051391601566 -1.755Q203.7330102539063 0.42 199.8675036621094 0.42ZM199.8675036621094 -2.4900439453125Q202.3394860839844 -2.4900439453125 203.70072692871096 -3.9480322265625Q205.06196777343752 -5.406020507812499 205.06196777343752 -7.933494873046874V-13.066505126953125Q205.06196777343752 -15.593979492187499 203.70072692871096 -17.0519677734375Q202.3394860839844 -18.5099560546875 199.8675036621094 -18.5099560546875Q197.42552124023442 -18.5099560546875 196.04928039550785 -17.0519677734375Q194.67303955078128 -15.593979492187499 194.67303955078128 -13.066505126953125V-7.933494873046874Q194.67303955078128 -5.406020507812499 196.04928039550785 -3.9480322265625Q197.42552124023442 -2.4900439453125 199.8675036621094 -2.4900439453125ZM197.8529809570313 -22.74 199.91098388671878 -26.514008789062498H203.57703369140629L200.68801757812503 -22.74Z M218.75998535156253 0.0V-21.0H224.98807617187504L230.7014685058594 -2.1540380859375H231.17847290039066V-21.0H234.3855212402344V0.0H228.1574304199219L222.4440380859375 -18.856461181640626H221.96703369140627V0.0Z" fill="#1B1815"/></g><g transform="translate(0 176.398)"><path d="M25.5375993652344 0.0V-1.244118408203125H26.769996826171898V-7.855881591796875H25.5375993652344V-9.1H29.181506347656274Q30.996307617187522 -9.1 31.965456665039085 -8.179599365234374Q32.934605712890644 -7.25919873046875 32.934605712890644 -5.398900634765624V-3.6965496826171873Q32.934605712890644 -1.8362515869140623 31.965456665039085 -0.9181257934570312Q30.996307617187522 0.0 29.181506347656274 0.0ZM28.176618408203147 -1.2779196777343749H29.198406982421897Q30.374897460937525 -1.2779196777343749 30.951440795898463 -1.8739661865234374Q31.527984130859398 -2.4700126953124997 31.527984130859398 -3.649099365234375V-5.446350952148437Q31.527984130859398 -6.638437622070312 30.951440795898463 -7.227984130859374Q30.374897460937525 -7.817530639648437 29.198406982421897 -7.817530639648437H28.176618408203147Z M37.12449365234377 0.0V-9.1H38.53111523437502V0.0Z M46.181593017578145 0.182Q45.209195556640644 0.182 44.441871032714864 -0.24049999999999996Q43.674546508789085 -0.6629999999999999 43.23287103271487 -1.4800496826171874Q42.791195556640645 -2.297099365234375 42.791195556640645 -3.480748413085937V-5.6192515869140625Q42.791195556640645 -7.396999999999999 43.76782135009768 -8.3395Q44.74444714355471 -9.282 46.402599365234394 -9.282Q48.04775158691408 -9.282 48.92785412597658 -8.393774841308593Q49.807956665039086 -7.505549682617187 49.807956665039086 -6.002748413085937V-5.946198730468749H48.418235717773456V-6.045649047851562Q48.418235717773456 -6.608543334960937 48.2008118286133 -7.05541436767578Q47.983387939453145 -7.502285400390624 47.53716595458987 -7.761633178710937Q47.09094396972658 -8.02098095703125 46.402599365234394 -8.02098095703125Q45.36975793457034 -8.02098095703125 44.78378753662112 -7.38918603515625Q44.197817138671894 -6.757391113281249 44.197817138671894 -5.645251586914062V-3.4547484130859374Q44.197817138671894 -2.3510592041015625 44.78378753662112 -1.7065888061523438Q45.36975793457034 -1.062118408203125 46.41950000000002 -1.062118408203125Q47.460142700195334 -1.062118408203125 47.94373889160158 -1.6334630126953125Q48.42733508300783 -2.2048076171875 48.42733508300783 -3.1180465087890625V-3.2935433349609373H45.973605712890645V-4.494761108398437H49.807956665039086V0.0H48.513136352539085V-0.9255961914062499H48.30643444824221Q48.19268603515627 -0.6727484130859375 47.961613098144554 -0.41437420654296875Q47.730540161132836 -0.156 47.30706658935549 0.012999999999999998Q46.88359301757815 0.182 46.181593017578145 0.182Z M54.21949365234377 0.0V-9.1H55.62611523437502V0.0Z M62.2911892089844 0.0V-7.8220803222656246H59.50269873046877V-9.1H66.48630126953127V-7.8220803222656246H63.69781079101565V0.0Z M69.69599682617189 0.0 72.29273254394532 -9.1H74.75496936035158L77.35170507812501 0.0H75.89763317871095L75.30354016113283 -2.14758984375H71.74416174316407L71.15006872558595 0.0ZM72.08801586914063 -3.44241015625H74.95968603515627L73.62720190429688 -8.225735717773437H73.42050000000002Z M81.18149365234376 0.0V-9.1H82.58811523437501V-1.2779196777343749H86.96650000000001V0.0Z M96.4265993652344 0.0V-1.244118408203125H97.6589968261719V-7.855881591796875H96.4265993652344V-9.1H100.07050634765626Q101.88530761718752 -9.1 102.85445666503908 -8.179599365234374Q103.82360571289064 -7.25919873046875 103.82360571289064 -5.398900634765624V-3.6965496826171873Q103.82360571289064 -1.8362515869140623 102.85445666503908 -0.9181257934570312Q101.88530761718752 0.0 100.07050634765626 0.0ZM99.06561840820315 -1.2779196777343749H100.0874069824219Q101.26389746093751 -1.2779196777343749 101.84044079589845 -1.8739661865234374Q102.41698413085939 -2.4700126953124997 102.41698413085939 -3.649099365234375V-5.446350952148437Q102.41698413085939 -6.638437622070312 101.84044079589845 -7.227984130859374Q101.26389746093751 -7.817530639648437 100.0874069824219 -7.817530639648437H99.06561840820315Z M108.01349365234377 0.0V-9.1H113.74065222167971V-7.8220803222656246H109.42011523437502V-5.218860473632812H113.3766522216797V-3.9409407958984373H109.42011523437502V-1.2779196777343749H113.80955285644534V0.0Z M119.73883190917971 0.0 117.21099682617191 -9.1H118.66506872558597L120.8665993652344 -0.886615234375H121.03950000000003L123.24103063964847 -9.1H124.69510253906253L122.16726745605472 0.0Z M128.52749365234376 0.0V-9.1H134.25465222167972V-7.8220803222656246H129.934115234375V-5.218860473632812H133.89065222167972V-3.9409407958984373H129.934115234375V-1.2779196777343749H134.32355285644533V0.0Z M138.39449365234375 0.0V-9.1H139.801115234375V-1.2779196777343749H144.17950000000002V0.0Z M151.48875158691408 0.182Q149.81369873046876 0.182 148.8224471435547 -0.7605Q147.83119555664064 -1.7029999999999998 147.83119555664064 -3.480748413085937V-5.6192515869140625Q147.83119555664064 -7.396999999999999 148.8224471435547 -8.3395Q149.81369873046876 -9.282 151.48875158691408 -9.282Q153.16380444335937 -9.282 154.15505603027344 -8.3395Q155.14630761718752 -7.396999999999999 155.14630761718752 -5.6192515869140625V-3.480748413085937Q155.14630761718752 -1.7029999999999998 154.15505603027344 -0.7605Q153.16380444335937 0.182 151.48875158691408 0.182ZM151.48875158691408 -1.0790190429687498Q152.55994396972656 -1.0790190429687498 153.14981500244141 -1.7108139648437497Q153.73968603515627 -2.34260888671875 153.73968603515627 -3.4378477783203123V-5.662152221679687Q153.73968603515627 -6.757391113281249 153.14981500244141 -7.38918603515625Q152.55994396972656 -8.02098095703125 151.48875158691408 -8.02098095703125Q150.43055920410157 -8.02098095703125 149.83418817138673 -7.38918603515625Q149.2378171386719 -6.757391113281249 149.2378171386719 -5.662152221679687V-3.4378477783203123Q149.2378171386719 -2.34260888671875 149.83418817138673 -1.7108139648437497Q150.43055920410157 -1.0790190429687498 151.48875158691408 -1.0790190429687498Z M159.41549365234374 0.0V-9.1H163.0275528564453Q163.86735412597656 -9.1 164.51930444335937 -8.769149047851563Q165.1712547607422 -8.438298095703125 165.54402960205078 -7.832496826171875Q165.91680444335938 -7.226695556640625 165.91680444335938 -6.382344604492187V-6.209443969726562Q165.91680444335938 -5.373543334960937 165.53330444335938 -4.761242065429688Q165.14980444335936 -4.1489407958984375 164.49785412597654 -3.8203646850585935Q163.84590380859373 -3.49178857421875 163.0275528564453 -3.49178857421875H160.822115234375V0.0ZM160.822115234375 -4.769708251953125H162.88585095214845Q163.62424206542968 -4.769708251953125 164.0672124633789 -5.157754760742187Q164.51018286132813 -5.54580126953125 164.51018286132813 -6.230894287109375V-6.3608942871093745Q164.51018286132813 -7.050536987304687 164.0717621459961 -7.436308654785156Q163.63334143066405 -7.8220803222656246 162.88585095214845 -7.8220803222656246H160.822115234375Z M169.85449365234373 0.0V-9.1H172.49353173828123L174.4805528564453 -0.93341650390625H174.68725476074218L176.67427587890623 -9.1H179.31331396484373V0.0H177.9495930175781V-8.107431274414061H177.74289111328125L175.7643203125 0.0H173.4034873046875L171.42491650390625 -8.107431274414061H171.21821459960935V0.0Z M183.81649365234372 0.0V-9.1H189.54365222167968V-7.8220803222656246H185.22311523437497V-5.218860473632812H189.17965222167967V-3.9409407958984373H185.22311523437497V-1.2779196777343749H189.6125528564453V0.0Z M193.6834936523437 0.0V-9.1H196.38233300781246L198.85813635253902 -0.93341650390625H199.0648382568359V-9.1H200.45455920410154V0.0H197.7557198486328L195.2799165039062 -8.171133178710937H195.07321459960934V0.0Z M207.12418920898432 0.0V-7.8220803222656246H204.3356987304687V-9.1H211.3193012695312V-7.8220803222656246H208.53081079101557V0.0Z" fill="#6E6862"/></g><g transform="translate(0 193.862)"><path d="M62.75854333496094 0.0Q61.97984143066407 0.0 61.373066589355474 -0.28795031738281246Q60.76629174804688 -0.5759006347656249 60.419192382812504 -1.1215761108398437Q60.072093017578126 -1.6672515869140625 60.072093017578126 -2.4342515869140624Q60.072093017578126 -2.9978012695312497 60.2849672241211 -3.418350952148437Q60.49784143066407 -3.8389006347656247 60.85111627197266 -4.116450317382812Q61.204391113281254 -4.394 61.61974206542969 -4.528549682617188V-4.692350952148438Q60.997040161132816 -4.8828012695312495 60.56966595458985 -5.366076110839844Q60.14229174804688 -5.849350952148437 60.14229174804688 -6.669649047851562Q60.14229174804688 -7.458099365234375 60.49784143066407 -8.00182452392578Q60.853391113281255 -8.545549682617187 61.45561627197266 -8.822774841308593Q62.05784143066407 -9.1 62.81054333496094 -9.1H64.33673571777344V-7.975484130859375H63.02764904785157Q62.374403808593755 -7.975484130859375 61.931757934570314 -7.62481182861328Q61.48911206054688 -7.274139526367187 61.48911206054688 -6.563046508789062Q61.48911206054688 -6.0749006347656245 61.70263531494141 -5.765503173828124Q61.91615856933594 -5.456105712890625 62.26488055419922 -5.3079069824218745Q62.613602539062505 -5.159708251953124 63.02764904785157 -5.159708251953124H64.55253063964844V-6.443450317382812H65.89025158691406V-5.159708251953124H67.12264904785157V-4.0351923828125H65.89025158691406V0.0ZM62.97564904785157 -1.124515869140625H64.55253063964844V-4.0351923828125H62.97564904785157Q62.321754760742195 -4.0351923828125 61.87033404541016 -3.6737949218750003Q61.41891333007813 -3.3123974609375 61.41891333007813 -2.579854125976562Q61.41891333007813 -1.8388604736328125 61.88528436279297 -1.4816881713867187Q62.35165539550782 -1.124515869140625 62.97564904785157 -1.124515869140625Z M80.22209936523439 0.182Q78.5639471435547 0.182 77.58732135009767 -0.7605Q76.61069555664064 -1.7029999999999998 76.61069555664064 -3.480748413085937V-5.6192515869140625Q76.61069555664064 -7.396999999999999 77.58732135009767 -8.3395Q78.5639471435547 -9.282 80.22209936523439 -9.282Q81.86725158691407 -9.282 82.75645349121095 -8.374599365234374Q83.64565539550782 -7.467198730468749 83.64565539550782 -5.890947143554687V-5.817496826171875H82.25593444824219V-5.933847778320312Q82.25593444824219 -6.849040161132812 81.75738793945312 -7.4350105590820315Q81.25884143066406 -8.02098095703125 80.22209936523439 -8.02098095703125Q79.18925793457032 -8.02098095703125 78.60328753662111 -7.38918603515625Q78.01731713867188 -6.757391113281249 78.01731713867188 -5.645251586914062V-3.4547484130859374Q78.01731713867188 -2.3510592041015625 78.60328753662111 -1.7150391235351563Q79.18925793457032 -1.0790190429687498 80.22209936523439 -1.0790190429687498Q81.25884143066406 -1.0790190429687498 81.75738793945312 -1.6692145996093748Q82.25593444824219 -2.25941015625 82.25593444824219 -3.1661522216796874V-3.386503173828125H83.64565539550782V-3.2090528564453122Q83.64565539550782 -1.63280126953125 82.75645349121095 -0.725400634765625Q81.86725158691407 0.182 80.22209936523439 0.182Z M91.22725158691406 0.182Q89.55219873046876 0.182 88.5609471435547 -0.7605Q87.56969555664064 -1.7029999999999998 87.56969555664064 -3.480748413085937V-5.6192515869140625Q87.56969555664064 -7.396999999999999 88.5609471435547 -8.3395Q89.55219873046876 -9.282 91.22725158691406 -9.282Q92.90230444335938 -9.282 93.89355603027344 -8.3395Q94.8848076171875 -7.396999999999999 94.8848076171875 -5.6192515869140625V-3.480748413085937Q94.8848076171875 -1.7029999999999998 93.89355603027344 -0.7605Q92.90230444335938 0.182 91.22725158691406 0.182ZM91.22725158691406 -1.0790190429687498Q92.29844396972658 -1.0790190429687498 92.88831500244142 -1.7108139648437497Q93.47818603515626 -2.34260888671875 93.47818603515626 -3.4378477783203123V-5.662152221679687Q93.47818603515626 -6.757391113281249 92.88831500244142 -7.38918603515625Q92.29844396972658 -8.02098095703125 91.22725158691406 -8.02098095703125Q90.16905920410157 -8.02098095703125 89.57268817138673 -7.38918603515625Q88.97631713867189 -6.757391113281249 88.97631713867189 -5.662152221679687V-3.4378477783203123Q88.97631713867189 -2.34260888671875 89.57268817138673 -1.7108139648437497Q90.16905920410157 -1.0790190429687498 91.22725158691406 -1.0790190429687498Z M99.15399365234376 0.0V-9.1H101.8528330078125L104.32863635253908 -0.93341650390625H104.53533825683596V-9.1H105.92505920410157V0.0H103.22621984863282L100.75041650390627 -8.171133178710937H100.54371459960939V0.0Z M113.52029809570314 0.182Q112.49459619140626 0.182 111.70224523925782 -0.18362579345703126Q110.90989428710938 -0.5492515869140625 110.45944396972658 -1.2535264282226561Q110.00899365234376 -1.9578012695312499 110.00899365234376 -2.98219873046875V-3.3052515869140624H111.39871459960939V-2.98219873046875Q111.39871459960939 -2.008509521484375 111.98078436279297 -1.5307642822265626Q112.56285412597657 -1.05301904296875 113.52029809570314 -1.05301904296875Q114.4907420654297 -1.05301904296875 114.98766278076172 -1.4654397583007812Q115.48458349609376 -1.8778604736328124 115.48458349609376 -2.51940380859375Q115.48458349609376 -2.955549682617187 115.25188476562502 -3.2236723022460936Q115.01918603515627 -3.491794921875 114.58693762207034 -3.65949365234375Q114.1546892089844 -3.8271923828124996 113.55604016113283 -3.9662917480468747L113.07050317382814 -4.081338256835937Q112.20274841308596 -4.28478857421875 111.56282135009766 -4.594189208984375Q110.92289428710939 -4.90358984375 110.57221881103517 -5.407665954589843Q110.22154333496096 -5.911742065429687 110.22154333496096 -6.7118942871093745Q110.22154333496096 -7.512046508789062 110.61349365234376 -8.087622619628906Q111.00544396972657 -8.66319873046875 111.71102008056641 -8.972599365234375Q112.41659619140626 -9.282 113.36429809570313 -9.282Q114.31200000000001 -9.282 115.05885095214845 -8.95732452392578Q115.80570190429688 -8.632649047851562 116.23665222167969 -7.9943477783203125Q116.66760253906251 -7.3560465087890625 116.66760253906251 -6.395344604492188V-5.928H115.27788159179688V-6.395344604492188Q115.27788159179688 -6.98358984375 115.03770928955079 -7.345311828613282Q114.7975369873047 -7.707033813476563 114.36594079589844 -7.877007385253906Q113.9343446044922 -8.04698095703125 113.36429809570313 -8.04698095703125Q112.5251522216797 -8.04698095703125 112.06820825195314 -7.704434448242187Q111.61126428222657 -7.3618879394531245 111.61126428222657 -6.745695556640625Q111.61126428222657 -6.334900634765625 111.8140623779297 -6.069052856445312Q112.01686047363283 -5.803205078125 112.40653277587893 -5.6335560302734375Q112.79620507812501 -5.463906982421875 113.36950317382814 -5.333257934570312L113.85504016113282 -5.2182114257812495Q114.73904650878907 -5.023860473632812 115.4173245239258 -4.714784362792969Q116.09560253906251 -4.405708251953125 116.48495349121094 -3.8886321411132814Q116.87430444335939 -3.3715560302734375 116.87430444335939 -2.553205078125Q116.87430444335939 -1.7348541259765624 116.46090380859377 -1.1202780151367187Q116.04750317382813 -0.505701904296875 115.29447674560548 -0.1618509521484375Q114.54145031738283 0.182 113.52029809570314 0.182Z M124.34280126953126 0.182Q123.27484777832032 0.182 122.49809619140626 -0.2047515869140625Q121.7213446044922 -0.591503173828125 121.3011194458008 -1.3315296020507812Q120.88089428710938 -2.0715560302734373 120.88089428710938 -3.1206553955078125V-9.1H122.28751586914063V-3.0868541259765623Q122.28751586914063 -2.1183636474609373 122.82116174316407 -1.5986913452148435Q123.3548076171875 -1.0790190429687498 124.34280126953126 -1.0790190429687498Q125.33079492187501 -1.0790190429687498 125.86444079589845 -1.5986913452148435Q126.39808666992188 -2.1183636474609373 126.39808666992188 -3.0868541259765623V-9.1H127.80470825195313V-3.1206553955078125Q127.80470825195313 -2.0715560302734373 127.38675793457031 -1.3315296020507812Q126.96880761718751 -0.591503173828125 126.18978118896484 -0.2047515869140625Q125.4107547607422 0.182 124.34280126953126 0.182Z M132.23899365234377 0.0V-9.1H133.64561523437501V-1.2779196777343749H138.02400000000003V0.0Z M144.08068920898438 0.0V-7.8220803222656246H141.29219873046875V-9.1H148.27580126953126V-7.8220803222656246H145.48731079101563V0.0Z M152.15499365234376 0.0V-9.1H153.561615234375V0.0Z M158.05699365234375 0.0V-9.1H160.7558330078125L163.23163635253906 -0.93341650390625H163.43833825683595V-9.1H164.82805920410158V0.0H162.12921984863283L159.65341650390624 -8.171133178710937H159.44671459960938V0.0Z M172.4830930175781 0.182Q171.51069555664063 0.182 170.74337103271483 -0.24049999999999996Q169.97604650878904 -0.6629999999999999 169.53437103271483 -1.4800496826171874Q169.09269555664062 -2.297099365234375 169.09269555664062 -3.480748413085937V-5.6192515869140625Q169.09269555664062 -7.396999999999999 170.06932135009765 -8.3395Q171.04594714355468 -9.282 172.70409936523436 -9.282Q174.34925158691405 -9.282 175.22935412597656 -8.393774841308593Q176.10945666503906 -7.505549682617187 176.10945666503906 -6.002748413085937V-5.946198730468749H174.71973571777343V-6.045649047851562Q174.71973571777343 -6.608543334960937 174.50231182861327 -7.05541436767578Q174.2848879394531 -7.502285400390624 173.83866595458983 -7.761633178710937Q173.39244396972654 -8.02098095703125 172.70409936523436 -8.02098095703125Q171.6712579345703 -8.02098095703125 171.08528753662108 -7.38918603515625Q170.49931713867187 -6.757391113281249 170.49931713867187 -5.645251586914062V-3.4547484130859374Q170.49931713867187 -2.3510592041015625 171.08528753662108 -1.7065888061523438Q171.6712579345703 -1.062118408203125 172.721 -1.062118408203125Q173.7616427001953 -1.062118408203125 174.24523889160156 -1.6334630126953125Q174.7288350830078 -2.2048076171875 174.7288350830078 -3.1180465087890625V-3.2935433349609373H172.27510571289062V-4.494761108398437H176.10945666503906V0.0H174.81463635253905V-0.9255961914062499H174.6079344482422Q174.49418603515625 -0.6727484130859375 174.26311309814452 -0.41437420654296875Q174.0320401611328 -0.156 173.60856658935546 0.012999999999999998Q173.1850930175781 0.182 172.4830930175781 0.182Z" fill="#6E6862"/></g>
</svg>
